<svg width="38" height="38" viewBox="0 0 38 38" fill="none" xmlns="http://www.w3.org/2000/svg">
<path d="M19 26.9167C19.8399 26.9167 20.6453 26.5831 21.2392 25.9892C21.833 25.3953 22.1667 24.5899 22.1667 23.75C22.1667 22.9102 21.833 22.1047 21.2392 21.5109C20.6453 20.917 19.8399 20.5834 19 20.5834C18.1602 20.5834 17.3547 20.917 16.7608 21.5109C16.167 22.1047 15.8333 22.9102 15.8333 23.75C15.8333 24.5899 16.167 25.3953 16.7608 25.9892C17.3547 26.5831 18.1602 26.9167 19 26.9167ZM28.5 12.6667C29.3399 12.6667 30.1453 13.0003 30.7392 13.5942C31.333 14.1881 31.6667 14.9935 31.6667 15.8334V31.6667C31.6667 32.5066 31.333 33.312 30.7392 33.9059C30.1453 34.4997 29.3399 34.8334 28.5 34.8334H9.5C8.66015 34.8334 7.8547 34.4997 7.26083 33.9059C6.66697 33.312 6.33334 32.5066 6.33334 31.6667V15.8334C6.33334 14.9935 6.66697 14.1881 7.26083 13.5942C7.8547 13.0003 8.66015 12.6667 9.5 12.6667H11.0833V9.50004C11.0833 7.40041 11.9174 5.38678 13.4021 3.90211C14.8867 2.41745 16.9004 1.58337 19 1.58337C20.0396 1.58337 21.0691 1.78814 22.0296 2.18599C22.9901 2.58384 23.8628 3.16698 24.5979 3.90211C25.3331 4.63724 25.9162 5.50997 26.3141 6.47046C26.7119 7.43096 26.9167 8.46041 26.9167 9.50004V12.6667H28.5ZM19 4.75004C17.7402 4.75004 16.532 5.25049 15.6412 6.14128C14.7504 7.03208 14.25 8.24026 14.25 9.50004V12.6667H23.75V9.50004C23.75 8.24026 23.2496 7.03208 22.3588 6.14128C21.468 5.25049 20.2598 4.75004 19 4.75004Z" fill="black"/>
</svg>
