<svg width="38" height="38" viewBox="0 0 38 38" fill="none" xmlns="http://www.w3.org/2000/svg">
<path d="M19 30.4C15.0417 30.4 11.5425 28.3733 9.5 25.3333C9.5475 22.1666 15.8333 20.425 19 20.425C22.1667 20.425 28.4525 22.1666 28.5 25.3333C27.4532 26.8919 26.0393 28.1693 24.3826 29.0528C22.726 29.9364 20.8775 30.399 19 30.4ZM19 7.91663C20.2598 7.91663 21.468 8.41707 22.3588 9.30787C23.2496 10.1987 23.75 11.4068 23.75 12.6666C23.75 13.9264 23.2496 15.1346 22.3588 16.0254C21.468 16.9162 20.2598 17.4166 19 17.4166C17.7402 17.4166 16.532 16.9162 15.6412 16.0254C14.7504 15.1346 14.25 13.9264 14.25 12.6666C14.25 11.4068 14.7504 10.1987 15.6412 9.30787C16.532 8.41707 17.7402 7.91663 19 7.91663ZM19 3.16663C16.9207 3.16663 14.8618 3.57617 12.9408 4.37187C11.0199 5.16757 9.2744 6.33384 7.80414 7.8041C4.83481 10.7734 3.16666 14.8007 3.16666 19C3.16666 23.1992 4.83481 27.2265 7.80414 30.1958C9.2744 31.6661 11.0199 32.8324 12.9408 33.6281C14.8618 34.4238 16.9207 34.8333 19 34.8333C23.1993 34.8333 27.2265 33.1651 30.1959 30.1958C33.1652 27.2265 34.8333 23.1992 34.8333 19C34.8333 10.2441 27.7083 3.16663 19 3.16663Z" fill="black"/>
</svg>
